<svg width="68" height="49" viewBox="0 0 68 49" fill="none" xmlns="http://www.w3.org/2000/svg">
<path d="M0.898499 0.575195H67.1015V36.5752C67.1015 43.2026 61.7289 48.5752 55.1015 48.5752H12.8985C6.27108 48.5752 0.898499 43.2026 0.898499 36.5752V0.575195Z" fill="#1D4ED8"/>
<path d="M31.2872 15.4633C28.2426 16.7701 26.2758 18.8675 25.7091 22.162C29.3648 22.755 31.4205 25.3576 31.8983 28.2566C32.5761 32.3966 29.7982 35.9985 25.5869 36.5147C21.6978 36.9869 18.2309 34.6698 17.2531 30.4968C16.4531 27.0597 17.042 23.7982 18.6643 20.7234C20.9533 16.3418 24.6424 13.7063 29.4648 12.5752C30.0871 13.4208 30.876 14.5738 31.2872 15.4633Z" fill="white"/>
<path d="M50.3887 15.4633C47.3441 16.7701 45.3773 18.8675 44.8106 22.162C48.4663 22.755 50.522 25.3576 50.9998 28.2566C51.6776 32.3966 48.8997 35.9985 44.6884 36.5147C40.7993 36.9869 37.3324 34.6698 36.3546 30.4969C35.5546 27.0597 36.1435 23.7982 37.7658 20.7234C40.0548 16.3418 43.7439 13.7063 48.5663 12.5752C49.1886 13.4208 49.9775 14.5738 50.3887 15.4633Z" fill="white"/>
</svg>
