<svg width="476" height="318" viewBox="0 0 476 318" fill="none" xmlns="http://www.w3.org/2000/svg">
<path d="M9.17022 2.60793H46.7043C58.9178 2.60793 68.0779 5.88472 74.1846 12.4383C80.2914 18.9919 83.3447 28.5988 83.3447 41.2591V120.349C83.3447 133.009 80.2914 142.616 74.1846 149.17C68.0779 155.723 58.9178 159 46.7043 159H9.17022V2.60793ZM46.2575 136.658C50.279 136.658 53.3324 135.467 55.4176 133.084C57.6518 130.7 58.7688 126.828 58.7688 121.466V40.142C58.7688 34.78 57.6518 30.9075 55.4176 28.5243C53.3324 26.1412 50.279 24.9497 46.2575 24.9497H33.7461V136.658H46.2575ZM99.9335 2.60793H124.509V159H99.9335V2.60793ZM142.915 2.60793H179.332C191.992 2.60793 201.227 5.58683 207.036 11.5446C212.845 17.3535 215.749 26.3646 215.749 38.5781V48.1851C215.749 64.42 210.387 74.6972 199.663 79.0166V79.4635C205.621 81.2508 209.791 84.9 212.174 90.4109C214.707 95.9219 215.973 103.295 215.973 112.529V140.01C215.973 144.478 216.121 148.127 216.419 150.957C216.717 153.638 217.462 156.319 218.654 159H193.631C192.737 156.468 192.141 154.085 191.843 151.851C191.546 149.616 191.397 145.595 191.397 139.786V111.189C191.397 104.039 190.205 99.0497 187.822 96.2198C185.588 93.3898 181.641 91.9748 175.981 91.9748H167.491V159H142.915V2.60793ZM176.428 69.6331C181.343 69.6331 184.992 68.3671 187.375 65.835C189.907 63.303 191.173 59.058 191.173 53.1002V41.0357C191.173 35.3758 190.131 31.2798 188.045 28.7478C186.109 26.2157 182.981 24.9497 178.662 24.9497H167.491V69.6331H176.428ZM233.024 2.60793H300.049V24.9497H257.6V66.2818H291.336V88.6236H257.6V136.658H300.049V159H233.024V2.60793ZM333.401 24.9497H307.708V2.60793H383.67V24.9497H357.977V159H333.401V24.9497ZM430.219 161.234C418.155 161.234 408.92 157.808 402.515 150.957C396.111 144.106 392.908 134.424 392.908 121.913V39.6952C392.908 27.1838 396.111 17.5024 402.515 10.651C408.92 3.7995 418.155 0.373765 430.219 0.373765C442.284 0.373765 451.518 3.7995 457.923 10.651C464.328 17.5024 467.53 27.1838 467.53 39.6952V121.913C467.53 134.424 464.328 144.106 457.923 150.957C451.518 157.808 442.284 161.234 430.219 161.234ZM430.219 138.892C438.709 138.892 442.954 133.754 442.954 123.477V38.1313C442.954 27.8541 438.709 22.7155 430.219 22.7155C421.729 22.7155 417.484 27.8541 417.484 38.1313V123.477C417.484 133.754 421.729 138.892 430.219 138.892ZM10.8952 196.165H33.4157C40.7438 196.165 46.2398 198.131 49.9039 202.063C53.5679 205.995 55.3999 211.759 55.3999 219.355V266.809C55.3999 274.405 53.5679 280.17 49.9039 284.102C46.2398 288.034 40.7438 290 33.4157 290H10.8952V196.165ZM33.1476 276.595C35.5605 276.595 37.3925 275.88 38.6437 274.45C39.9842 273.02 40.6544 270.697 40.6544 267.48V218.685C40.6544 215.468 39.9842 213.144 38.6437 211.715C37.3925 210.285 35.5605 209.57 33.1476 209.57H25.6408V276.595H33.1476ZM76.4856 196.165H96.4591L111.741 290H96.9953L94.3143 271.367V271.635H77.558L74.877 290H61.2039L76.4856 196.165ZM92.5717 258.9L86.0032 212.519H85.7351L79.3007 258.9H92.5717ZM140.364 196.165H179.372V209.57H155.109V235.71H174.144V249.115H155.109V290H140.364V196.165ZM193.518 196.165H213.491L228.773 290H214.028L211.347 271.367V271.635H194.59L191.909 290H178.236L193.518 196.165ZM209.604 258.9L203.035 212.519H202.767L196.333 258.9H209.604ZM204.912 174.449H220.998L206.655 189.864H195.529L204.912 174.449ZM235.927 196.165H258.179C265.776 196.165 271.316 197.952 274.802 201.527C278.287 205.012 280.03 210.419 280.03 217.747V221.5C280.03 226.326 279.225 230.258 277.617 233.297C276.097 236.335 273.729 238.525 270.512 239.865V240.133C277.84 242.636 281.504 249.159 281.504 259.705V267.748C281.504 274.986 279.583 280.527 275.74 284.37C271.987 288.123 266.446 290 259.118 290H235.927V196.165ZM256.437 234.369C259.386 234.369 261.575 233.609 263.005 232.09C264.524 230.571 265.284 228.024 265.284 224.449V219.221C265.284 215.825 264.658 213.368 263.407 211.849C262.246 210.329 260.369 209.57 257.777 209.57H250.673V234.369H256.437ZM259.118 276.595C261.709 276.595 263.631 275.925 264.882 274.584C266.133 273.154 266.759 270.741 266.759 267.345V259.168C266.759 254.879 265.999 251.93 264.48 250.321C263.05 248.623 260.637 247.774 257.241 247.774H250.673V276.595H259.118ZM290.123 196.165H311.973C319.57 196.165 325.11 197.952 328.596 201.527C332.081 205.012 333.824 210.419 333.824 217.747V223.511C333.824 233.252 330.606 239.418 324.172 242.01V242.278C327.747 243.35 330.249 245.54 331.679 248.847C333.198 252.153 333.958 256.577 333.958 262.118V278.606C333.958 281.287 334.047 283.476 334.226 285.174C334.404 286.783 334.851 288.391 335.566 290H320.553C320.016 288.481 319.659 287.051 319.48 285.71C319.301 284.37 319.212 281.957 319.212 278.472V261.313C319.212 257.024 318.497 254.03 317.067 252.332C315.727 250.634 313.359 249.785 309.963 249.785H304.869V290H290.123V196.165ZM310.231 236.38C313.18 236.38 315.369 235.62 316.799 234.101C318.318 232.582 319.078 230.035 319.078 226.46V219.221C319.078 215.825 318.452 213.368 317.201 211.849C316.04 210.329 314.163 209.57 311.571 209.57H304.869V236.38H310.231ZM344.188 196.165H358.934V290H344.188V196.165ZM390.755 291.341C383.695 291.341 378.288 289.33 374.535 285.308C370.871 281.287 369.039 275.612 369.039 268.284V217.881C369.039 210.553 370.871 204.878 374.535 200.857C378.288 196.835 383.695 194.824 390.755 194.824C397.815 194.824 403.177 196.835 406.841 200.857C410.595 204.878 412.471 210.553 412.471 217.881V227.801H398.53V216.943C398.53 211.134 396.072 208.229 391.157 208.229C386.242 208.229 383.785 211.134 383.785 216.943V269.356C383.785 275.076 386.242 277.935 391.157 277.935C396.072 277.935 398.53 275.076 398.53 269.356V255.013H412.471V268.284C412.471 275.612 410.595 281.287 406.841 285.308C403.177 289.33 397.815 291.341 390.755 291.341ZM432.688 196.165H452.661L467.943 290H453.197L450.516 271.367V271.635H433.76L431.079 290H417.406L432.688 196.165ZM448.774 258.9L442.205 212.519H441.937L435.503 258.9H448.774Z" fill="black"/>
<rect width="476" height="17.3881" transform="translate(0 299.785)" fill="#DC2626"/>
</svg>
