<svg width="395" height="250" viewBox="0 0 395 250" fill="none" xmlns="http://www.w3.org/2000/svg">
<path d="M0.253076 2.05831H32.5132C43.0106 2.05831 50.8836 4.87467 56.1322 10.5074C61.3809 16.1401 64.0053 24.3972 64.0053 35.2786V103.255C64.0053 114.137 61.3809 122.394 56.1322 128.026C50.8836 133.659 43.0106 136.476 32.5132 136.476H0.253076V2.05831ZM32.1292 117.273C35.5856 117.273 38.2099 116.249 40.0022 114.201C41.9224 112.152 42.8825 108.824 42.8825 104.215V34.3185C42.8825 29.7099 41.9224 26.3814 40.0022 24.3332C38.2099 22.2849 35.5856 21.2608 32.1292 21.2608H21.3758V117.273H32.1292ZM78.2631 2.05831H99.3858V136.476H78.2631V2.05831ZM115.205 2.05831H146.505C157.387 2.05831 165.324 4.61864 170.316 9.7393C175.309 14.7319 177.805 22.4769 177.805 32.9743V41.2313C177.805 55.1851 173.197 64.0183 163.98 67.7307V68.1148C169.1 69.651 172.685 72.7874 174.733 77.524C176.909 82.2606 177.997 88.5974 177.997 96.5344V120.153C177.997 123.994 178.125 127.13 178.381 129.563C178.637 131.867 179.278 134.171 180.302 136.476H158.795C158.027 134.299 157.515 132.251 157.259 130.331C157.003 128.411 156.875 124.954 156.875 119.961V95.3823C156.875 89.2375 155.851 84.9489 153.802 82.5166C151.882 80.0843 148.49 78.8682 143.625 78.8682H136.328V136.476H115.205V2.05831ZM144.009 59.6657C148.234 59.6657 151.37 58.5776 153.418 56.4013C155.594 54.225 156.683 50.5765 156.683 45.4559V35.0866C156.683 30.2219 155.787 26.7015 153.994 24.5252C152.33 22.3489 149.642 21.2608 145.929 21.2608H136.328V59.6657H144.009ZM192.653 2.05831H250.26V21.2608H213.775V56.7853H242.771V75.9878H213.775V117.273H250.26V136.476H192.653V2.05831ZM278.926 21.2608H256.843V2.05831H322.131V21.2608H300.049V136.476H278.926V21.2608ZM362.14 138.396C351.771 138.396 343.834 135.451 338.329 129.563C332.824 123.674 330.072 115.353 330.072 104.599V33.9344C330.072 23.181 332.824 14.86 338.329 8.9712C343.834 3.08244 351.771 0.138062 362.14 0.138062C372.509 0.138062 380.446 3.08244 385.951 8.9712C391.456 14.86 394.208 23.181 394.208 33.9344V104.599C394.208 115.353 391.456 123.674 385.951 129.563C380.446 135.451 372.509 138.396 362.14 138.396ZM362.14 119.193C369.437 119.193 373.085 114.777 373.085 105.944V32.5902C373.085 23.7571 369.437 19.3405 362.14 19.3405C354.843 19.3405 351.195 23.7571 351.195 32.5902V105.944C351.195 114.777 354.843 119.193 362.14 119.193ZM1.73572 167.825H21.0918C27.3902 167.825 32.114 169.515 35.2632 172.895C38.4124 176.274 39.987 181.229 39.987 187.757V228.543C39.987 235.072 38.4124 240.026 35.2632 243.406C32.114 246.786 27.3902 248.476 21.0918 248.476H1.73572V167.825ZM20.8614 236.954C22.9352 236.954 24.5098 236.34 25.5852 235.111C26.7373 233.882 27.3134 231.885 27.3134 229.119V187.181C27.3134 184.416 26.7373 182.419 25.5852 181.19C24.5098 179.961 22.9352 179.347 20.8614 179.347H14.4093V236.954H20.8614ZM58.11 167.825H75.277L88.4114 248.476H75.7378L73.4335 232.461V232.691H59.0317L56.7274 248.476H44.9755L58.11 167.825ZM71.9357 221.746L66.2902 181.881H66.0598L60.5295 221.746H71.9357ZM113.012 167.825H146.54V179.347H125.686V201.814H142.047V213.335H125.686V248.476H113.012V167.825ZM158.698 167.825H175.865L188.999 248.476H176.326L174.021 232.461V232.691H159.62L157.315 248.476H145.563L158.698 167.825ZM172.524 221.746L166.878 181.881H166.648L161.117 221.746H172.524ZM168.491 149.16H182.317L169.989 162.41H160.426L168.491 149.16ZM195.148 167.825H214.274C220.803 167.825 225.565 169.361 228.56 172.434C231.556 175.429 233.054 180.076 233.054 186.375V189.601C233.054 193.749 232.362 197.128 230.98 199.74C229.674 202.351 227.639 204.233 224.873 205.385V205.616C231.172 207.766 234.321 213.373 234.321 222.437V229.35C234.321 235.572 232.67 240.334 229.367 243.637C226.141 246.863 221.379 248.476 215.08 248.476H195.148V167.825ZM212.776 200.661C215.311 200.661 217.192 200.009 218.421 198.703C219.727 197.397 220.38 195.208 220.38 192.136V187.642C220.38 184.723 219.842 182.611 218.767 181.305C217.769 180 216.156 179.347 213.928 179.347H207.822V200.661H212.776ZM215.08 236.954C217.308 236.954 218.959 236.378 220.034 235.226C221.11 233.997 221.647 231.923 221.647 229.004V221.976C221.647 218.289 220.995 215.755 219.689 214.372C218.46 212.913 216.386 212.183 213.467 212.183H207.822V236.954H215.08ZM241.729 167.825H260.509C267.038 167.825 271.8 169.361 274.796 172.434C277.791 175.429 279.289 180.076 279.289 186.375V191.329C279.289 199.701 276.524 205.001 270.994 207.229V207.459C274.066 208.381 276.217 210.263 277.446 213.105C278.751 215.947 279.404 219.749 279.404 224.511V238.682C279.404 240.987 279.481 242.868 279.635 244.328C279.788 245.71 280.172 247.093 280.787 248.476H267.883C267.422 247.17 267.115 245.941 266.961 244.789C266.807 243.637 266.731 241.563 266.731 238.567V223.82C266.731 220.133 266.116 217.56 264.887 216.1C263.735 214.641 261.7 213.911 258.781 213.911H254.403V248.476H241.729V167.825ZM259.011 202.39C261.546 202.39 263.428 201.737 264.657 200.431C265.963 199.125 266.615 196.936 266.615 193.864V187.642C266.615 184.723 266.078 182.611 265.002 181.305C264.004 180 262.391 179.347 260.163 179.347H254.403V202.39H259.011ZM288.197 167.825H300.871V248.476H288.197V167.825ZM328.221 249.628C322.153 249.628 317.506 247.899 314.28 244.443C311.131 240.987 309.556 236.109 309.556 229.811V186.49C309.556 180.192 311.131 175.314 314.28 171.858C317.506 168.401 322.153 166.673 328.221 166.673C334.289 166.673 338.898 168.401 342.047 171.858C345.273 175.314 346.886 180.192 346.886 186.49V195.016H334.904V185.684C334.904 180.691 332.791 178.195 328.567 178.195C324.342 178.195 322.23 180.691 322.23 185.684V230.732C322.23 235.648 324.342 238.106 328.567 238.106C332.791 238.106 334.904 235.648 334.904 230.732V218.404H346.886V229.811C346.886 236.109 345.273 240.987 342.047 244.443C338.898 247.899 334.289 249.628 328.221 249.628ZM364.262 167.825H381.429L394.563 248.476H381.89L379.585 232.461V232.691H365.183L362.879 248.476H351.127L364.262 167.825ZM378.087 221.746L372.442 181.881H372.212L366.681 221.746H378.087Z" fill="black"/>
</svg>
