<svg width="220" height="146" viewBox="0 0 220 146" fill="none" xmlns="http://www.w3.org/2000/svg">
<path d="M4.94911 1.04651H22.218C27.8372 1.04651 32.0516 2.55411 34.8612 5.5693C37.6708 8.58449 39.0756 13.0045 39.0756 18.8293V55.2172C39.0756 61.042 37.6708 65.462 34.8612 68.4772C32.0516 71.4924 27.8372 73 22.218 73H4.94911V1.04651ZM22.0124 62.7209C23.8626 62.7209 25.2674 62.1727 26.2268 61.0763C27.2547 59.9798 27.7686 58.1981 27.7686 55.7312V18.3153C27.7686 15.8484 27.2547 14.0667 26.2268 12.9702C25.2674 11.8738 23.8626 11.3256 22.0124 11.3256H16.2561V62.7209H22.0124ZM46.7078 1.04651H58.0148V73H46.7078V1.04651ZM66.483 1.04651H83.2379C89.0627 1.04651 93.3114 2.41705 95.9839 5.15814C98.6565 7.83069 99.9928 11.9766 99.9928 17.5958V22.0158C99.9928 29.4853 97.5258 34.2136 92.5918 36.2009V36.4065C95.3329 37.2288 97.2517 38.9078 98.3481 41.4433C99.5131 43.9788 100.096 47.3709 100.096 51.6195V64.2628C100.096 66.3186 100.164 67.9975 100.301 69.2995C100.438 70.533 100.781 71.7665 101.329 73H89.8165C89.4053 71.835 89.1312 70.7386 88.9942 69.7107C88.8571 68.6828 88.7886 66.8326 88.7886 64.16V51.0028C88.7886 47.7135 88.2404 45.4178 87.1439 44.1158C86.116 42.8138 84.3001 42.1628 81.696 42.1628H77.79V73H66.483V1.04651ZM81.9016 31.8837C84.163 31.8837 85.8419 31.3012 86.9383 30.1363C88.1033 28.9713 88.6858 27.0183 88.6858 24.2772V18.7265C88.6858 16.1225 88.2061 14.238 87.2467 13.073C86.3559 11.9081 84.9168 11.3256 82.9295 11.3256H77.79V31.8837H81.9016ZM107.941 1.04651H138.778V11.3256H119.248V30.3419H134.769V40.6209H119.248V62.7209H138.778V73H107.941V1.04651ZM154.123 11.3256H142.302V1.04651H177.25V11.3256H165.429V73H154.123V11.3256ZM198.667 74.0279C193.116 74.0279 188.868 72.4518 185.921 69.2995C182.974 66.1473 181.501 61.693 181.501 55.9367V18.1098C181.501 12.3535 182.974 7.89922 185.921 4.74697C188.868 1.59473 193.116 0.0186025 198.667 0.0186025C204.218 0.0186025 208.466 1.59473 211.413 4.74697C214.36 7.89922 215.833 12.3535 215.833 18.1098V55.9367C215.833 61.693 214.36 66.1473 211.413 69.2995C208.466 72.4518 204.218 74.0279 198.667 74.0279ZM198.667 63.7488C202.573 63.7488 204.526 61.3847 204.526 56.6563V17.3902C204.526 12.6619 202.573 10.2977 198.667 10.2977C194.761 10.2977 192.808 12.6619 192.808 17.3902V56.6563C192.808 61.3847 194.761 63.7488 198.667 63.7488ZM5.74277 89.8279H16.1041C19.4756 89.8279 22.0043 90.7325 23.69 92.5416C25.3758 94.3507 26.2187 97.0027 26.2187 100.498V122.33C26.2187 125.825 25.3758 128.477 23.69 130.286C22.0043 132.095 19.4756 133 16.1041 133H5.74277V89.8279ZM15.9807 126.833C17.0909 126.833 17.9337 126.504 18.5094 125.846C19.1261 125.188 19.4345 124.119 19.4345 122.639V100.189C19.4345 98.709 19.1261 97.64 18.5094 96.9821C17.9337 96.3243 17.0909 95.9953 15.9807 95.9953H12.527V126.833H15.9807ZM35.9199 89.8279H45.1094L52.1402 133H45.3561L44.1226 124.427V124.551H36.4133L35.1798 133H28.889L35.9199 89.8279ZM43.3208 118.692L40.2988 97.3522H40.1754L37.215 118.692H43.3208ZM65.3092 89.8279H83.2564V95.9953H72.0934V108.022H80.8511V114.189H72.0934V133H65.3092V89.8279ZM89.7645 89.8279H98.954L105.985 133H99.2007L97.9672 124.427V124.551H90.2579L89.0244 133H82.7336L89.7645 89.8279ZM97.1655 118.692L94.1434 97.3522H94.0201L91.0597 118.692H97.1655ZM95.0069 79.8366H102.408L95.8086 86.9292H90.6896L95.0069 79.8366ZM109.276 89.8279H119.514C123.009 89.8279 125.558 90.6502 127.162 92.2949C128.765 93.8984 129.567 96.386 129.567 99.7575V101.484C129.567 103.705 129.197 105.514 128.457 106.912C127.758 108.31 126.668 109.317 125.188 109.934V110.057C128.56 111.208 130.246 114.21 130.246 119.062V122.762C130.246 126.092 129.362 128.642 127.594 130.41C125.867 132.137 123.318 133 119.946 133H109.276V89.8279ZM118.712 107.405C120.069 107.405 121.077 107.056 121.735 106.357C122.434 105.658 122.783 104.486 122.783 102.841V100.436C122.783 98.8735 122.495 97.7428 121.92 97.0438C121.385 96.3448 120.522 95.9953 119.329 95.9953H116.06V107.405H118.712ZM119.946 126.833C121.138 126.833 122.022 126.524 122.598 125.907C123.174 125.25 123.461 124.139 123.461 122.577V118.815C123.461 116.841 123.112 115.484 122.413 114.744C121.755 113.963 120.645 113.573 119.083 113.573H116.06V126.833H119.946ZM134.211 89.8279H144.264C147.759 89.8279 150.308 90.6502 151.912 92.2949C153.515 93.8984 154.317 96.386 154.317 99.7575V102.409C154.317 106.891 152.837 109.728 149.876 110.921V111.044C151.521 111.537 152.672 112.545 153.33 114.066C154.029 115.587 154.379 117.623 154.379 120.172V127.758C154.379 128.991 154.42 129.999 154.502 130.78C154.584 131.52 154.79 132.26 155.119 133H148.211C147.964 132.301 147.8 131.643 147.718 131.026C147.636 130.41 147.594 129.3 147.594 127.696V119.802C147.594 117.828 147.265 116.451 146.608 115.669C145.991 114.888 144.901 114.498 143.339 114.498H140.995V133H134.211V89.8279ZM143.462 108.33C144.819 108.33 145.826 107.981 146.484 107.282C147.183 106.583 147.533 105.411 147.533 103.766V100.436C147.533 98.8735 147.245 97.7428 146.669 97.0438C146.135 96.3448 145.271 95.9953 144.079 95.9953H140.995V108.33H143.462ZM159.086 89.8279H165.87V133H159.086V89.8279ZM180.51 133.617C177.262 133.617 174.775 132.692 173.048 130.841C171.362 128.991 170.519 126.38 170.519 123.009V99.8192C170.519 96.4476 171.362 93.8367 173.048 91.9865C174.775 90.1363 177.262 89.2112 180.51 89.2112C183.758 89.2112 186.225 90.1363 187.911 91.9865C189.638 93.8367 190.502 96.4476 190.502 99.8192V104.383H184.087V99.3874C184.087 96.7149 182.957 95.3786 180.695 95.3786C178.434 95.3786 177.303 96.7149 177.303 99.3874V123.502C177.303 126.134 178.434 127.449 180.695 127.449C182.957 127.449 184.087 126.134 184.087 123.502V116.903H190.502V123.009C190.502 126.38 189.638 128.991 187.911 130.841C186.225 132.692 183.758 133.617 180.51 133.617ZM199.803 89.8279H208.992L216.023 133H209.239L208.005 124.427V124.551H200.296L199.063 133H192.772L199.803 89.8279ZM207.204 118.692L204.182 97.3522H204.058L201.098 118.692H207.204Z" fill="black"/>
<rect width="219" height="8" transform="translate(0.5 138)" fill="#DC2626"/>
</svg>
