<svg width="36" height="34" viewBox="0 0 36 34" fill="none" xmlns="http://www.w3.org/2000/svg">
<path d="M17.083 0.682476C17.4317 -0.11886 18.5683 -0.118861 18.917 0.682475L23.208 10.5439C23.353 10.877 23.6672 11.1054 24.0288 11.1403L34.7336 12.174C35.6035 12.258 35.9547 13.3389 35.3003 13.9181L27.2476 21.0465C26.9755 21.2873 26.8555 21.6567 26.934 22.0115L29.2589 32.5117C29.4478 33.365 28.5284 34.033 27.7752 33.5897L18.5073 28.1338C18.1942 27.9495 17.8058 27.9495 17.4927 28.1338L8.22475 33.5897C7.47164 34.033 6.55218 33.365 6.74109 32.5117L9.06596 22.0115C9.1445 21.6567 9.02447 21.2873 8.75243 21.0465L0.69966 13.9181C0.045295 13.3389 0.396499 12.258 1.26637 12.174L11.9712 11.1403C12.3328 11.1054 12.647 10.877 12.792 10.5439L17.083 0.682476Z" fill="#FDE047"/>
</svg>
